<svg xmlns="http://www.w3.org/2000/svg" style="display: none;"><symbol id="down-arrow" viewBox="0 0 129 129"><title>down-arrow</title><path d="m121.3,34.6c-1.6-1.6-4.2-1.6-5.8,0l-51,51.1-51.1-51.1c-1.6-1.6-4.2-1.6-5.8,0-1.6,1.6-1.6,4.2 0,5.8l53.9,53.9c0.8,0.8 1.8,1.2 2.9,1.2 1,0 2.1-0.4 2.9-1.2l53.9-53.9c1.7-1.6 1.7-4.2 0.1-5.8z" fill="#000000"/></symbol><symbol id="magnifying-glass" viewBox="0 0 512 512"><title>magnifying-glass</title><path d="M495,466.2L377.2,348.4c29.2-35.6,46.8-81.2,46.8-130.9C424,103.5,331.5,11,217.5,11C103.4,11,11,103.5,11,217.5 S103.4,424,217.5,424c49.7,0,95.2-17.5,130.8-46.7L466.1,495c8,8,20.9,8,28.9,0C503,487.1,503,474.1,495,466.2z M217.5,382.9 C126.2,382.9,52,308.7,52,217.5S126.2,52,217.5,52C308.7,52,383,126.3,383,217.5S308.7,382.9,217.5,382.9z" fill="#000000"/></symbol><symbol id="menu" viewBox="0 0 512 512"><title>menu</title><g> <g> <path d="M491.318,235.318H20.682C9.26,235.318,0,244.577,0,256s9.26,20.682,20.682,20.682h470.636 c11.423,0,20.682-9.259,20.682-20.682C512,244.578,502.741,235.318,491.318,235.318z" fill="#000000"/> </g> </g><g> <g> <path d="M491.318,78.439H20.682C9.26,78.439,0,87.699,0,99.121c0,11.422,9.26,20.682,20.682,20.682h470.636 c11.423,0,20.682-9.26,20.682-20.682C512,87.699,502.741,78.439,491.318,78.439z" fill="#000000"/> </g> </g><g> <g> <path d="M491.318,392.197H20.682C9.26,392.197,0,401.456,0,412.879s9.26,20.682,20.682,20.682h470.636 c11.423,0,20.682-9.259,20.682-20.682S502.741,392.197,491.318,392.197z" fill="#000000"/> </g> </g></symbol><symbol id="shopping-cart" viewBox="0 0 260.293 260.293"><title>shopping-cart</title><path d="M258.727,57.459c-1.42-1.837-3.612-2.913-5.934-2.913H62.004l-8.333-32.055c-0.859-3.306-3.843-5.613-7.259-5.613H7.5 c-4.142,0-7.5,3.358-7.5,7.5c0,4.142,3.358,7.5,7.5,7.5h33.112l8.333,32.055c0,0.001,0,0.001,0.001,0.002l29.381,112.969 c0.859,3.305,3.843,5.612,7.258,5.612h137.822c3.415,0,6.399-2.307,7.258-5.612l29.385-112.971 C260.636,61.687,260.147,59.295,258.727,57.459z M117.877,167.517H91.385l-5.892-22.652h32.384V167.517z M117.877,129.864H81.592 l-5.895-22.667h42.18V129.864z M117.877,92.197H71.795l-5.891-22.651h51.973V92.197z M176.119,167.517h-43.242v-22.652h43.242 V167.517z M176.119,129.864h-43.242v-22.667h43.242V129.864z M176.119,92.197h-43.242V69.546h43.242V92.197z M217.609,167.517 h-26.49v-22.652h32.382L217.609,167.517z M227.403,129.864h-36.284v-22.667h42.18L227.403,129.864z M237.201,92.197h-46.081V69.546 h51.974L237.201,92.197z" fill="#000000"/><path d="M105.482,188.62c-15.106,0-27.396,12.29-27.396,27.395c0,15.108,12.29,27.4,27.396,27.4 c15.105,0,27.395-12.292,27.395-27.4C132.877,200.91,120.588,188.62,105.482,188.62z M105.482,228.415 c-6.835,0-12.396-5.563-12.396-12.4c0-6.835,5.561-12.395,12.396-12.395c6.834,0,12.395,5.561,12.395,12.395 C117.877,222.853,112.317,228.415,105.482,228.415z" fill="#000000"/><path d="M203.512,188.62c-15.104,0-27.392,12.29-27.392,27.395c0,15.108,12.288,27.4,27.392,27.4 c15.107,0,27.396-12.292,27.396-27.4C230.908,200.91,218.618,188.62,203.512,188.62z M203.512,228.415 c-6.833,0-12.392-5.563-12.392-12.4c0-6.835,5.559-12.395,12.392-12.395c6.836,0,12.396,5.561,12.396,12.395 C215.908,222.853,210.347,228.415,203.512,228.415z" fill="#000000"/></symbol><symbol id="shopping-cart-of-checkered-design" viewBox="0 0 446.843 446.843"><title>shopping-cart-of-checkered-design</title><path d="M444.09,93.103c-2.698-3.699-7.006-5.888-11.584-5.888H109.92c-0.625,0-1.249,0.038-1.85,0.119l-13.276-38.27 c-1.376-3.958-4.406-7.113-8.3-8.646L19.586,14.134c-7.374-2.887-15.695,0.735-18.591,8.1c-2.891,7.369,0.73,15.695,8.1,18.591 l60.768,23.872l74.381,214.399c-3.283,1.144-6.065,3.663-7.332,7.187l-21.506,59.739c-1.318,3.663-0.775,7.733,1.468,10.916 c2.24,3.183,5.883,5.078,9.773,5.078h11.044c-6.844,7.616-11.044,17.646-11.044,28.675c0,23.718,19.298,43.012,43.012,43.012 s43.012-19.294,43.012-43.012c0-11.029-4.2-21.059-11.044-28.675h93.776c-6.847,7.616-11.048,17.646-11.048,28.675 c0,23.718,19.294,43.012,43.013,43.012c23.718,0,43.012-19.294,43.012-43.012c0-11.029-4.2-21.059-11.043-28.675h13.433 c6.599,0,11.947-5.349,11.947-11.948c0-6.599-5.349-11.947-11.947-11.947H143.647l13.319-36.996 c1.72,0.724,3.578,1.152,5.523,1.152h210.278c6.234,0,11.751-4.027,13.65-9.959l59.739-186.387 C447.557,101.567,446.788,96.802,444.09,93.103z M169.659,409.807c-10.543,0-19.116-8.573-19.116-19.116 s8.573-19.117,19.116-19.117s19.116,8.574,19.116,19.117S180.202,409.807,169.659,409.807z M327.367,409.807 c-10.543,0-19.117-8.573-19.117-19.116s8.574-19.117,19.117-19.117c10.542,0,19.116,8.574,19.116,19.117 S337.909,409.807,327.367,409.807z M402.52,148.149h-73.161V115.89h83.499L402.52,148.149z M381.453,213.861h-52.094v-37.038 h63.967L381.453,213.861z M234.571,213.861v-37.038h66.113v37.038H234.571z M300.684,242.538v31.064h-66.113v-31.064H300.684z M139.115,176.823h66.784v37.038h-53.933L139.115,176.823z M234.571,148.149V115.89h66.113v32.259H234.571z M205.898,115.89v32.259 h-76.734l-11.191-32.259H205.898z M161.916,242.538h43.982v31.064h-33.206L161.916,242.538z M329.359,273.603v-31.064h42.909 l-9.955,31.064H329.359z" fill="#000000"/></symbol><symbol id="profile" viewBox="0 0 55 55"><title>profile</title><path d="M55,27.5C55,12.337,42.663,0,27.5,0S0,12.337,0,27.5c0,8.009,3.444,15.228,8.926,20.258l-0.026,0.023l0.892,0.752 c0.058,0.049,0.121,0.089,0.179,0.137c0.474,0.393,0.965,0.766,1.465,1.127c0.162,0.117,0.324,0.234,0.489,0.348 c0.534,0.368,1.082,0.717,1.642,1.048c0.122,0.072,0.245,0.142,0.368,0.212c0.613,0.349,1.239,0.678,1.88,0.98 c0.047,0.022,0.095,0.042,0.142,0.064c2.089,0.971,4.319,1.684,6.651,2.105c0.061,0.011,0.122,0.022,0.184,0.033 c0.724,0.125,1.456,0.225,2.197,0.292c0.09,0.008,0.18,0.013,0.271,0.021C25.998,54.961,26.744,55,27.5,55 c0.749,0,1.488-0.039,2.222-0.098c0.093-0.008,0.186-0.013,0.279-0.021c0.735-0.067,1.461-0.164,2.178-0.287 c0.062-0.011,0.125-0.022,0.187-0.034c2.297-0.412,4.495-1.109,6.557-2.055c0.076-0.035,0.153-0.068,0.229-0.104 c0.617-0.29,1.22-0.603,1.811-0.936c0.147-0.083,0.293-0.167,0.439-0.253c0.538-0.317,1.067-0.648,1.581-1 c0.185-0.126,0.366-0.259,0.549-0.391c0.439-0.316,0.87-0.642,1.289-0.983c0.093-0.075,0.193-0.14,0.284-0.217l0.915-0.764 l-0.027-0.023C51.523,42.802,55,35.55,55,27.5z M2,27.5C2,13.439,13.439,2,27.5,2S53,13.439,53,27.5 c0,7.577-3.325,14.389-8.589,19.063c-0.294-0.203-0.59-0.385-0.893-0.537l-8.467-4.233c-0.76-0.38-1.232-1.144-1.232-1.993v-2.957 c0.196-0.242,0.403-0.516,0.617-0.817c1.096-1.548,1.975-3.27,2.616-5.123c1.267-0.602,2.085-1.864,2.085-3.289v-3.545 c0-0.867-0.318-1.708-0.887-2.369v-4.667c0.052-0.52,0.236-3.448-1.883-5.864C34.524,9.065,31.541,8,27.5,8 s-7.024,1.065-8.867,3.168c-2.119,2.416-1.935,5.346-1.883,5.864v4.667c-0.568,0.661-0.887,1.502-0.887,2.369v3.545 c0,1.101,0.494,2.128,1.34,2.821c0.81,3.173,2.477,5.575,3.093,6.389v2.894c0,0.816-0.445,1.566-1.162,1.958l-7.907,4.313 c-0.252,0.137-0.502,0.297-0.752,0.476C5.276,41.792,2,35.022,2,27.5z" fill="#000000"/></symbol><symbol id="line-logo" viewBox="0 0 296.528 296.528"><title>line-logo</title><path d="M295.838,115.347l0.003-0.001l-0.092-0.76c-0.001-0.013-0.002-0.023-0.004-0.036c-0.001-0.011-0.002-0.021-0.004-0.032 l-0.344-2.858c-0.069-0.574-0.148-1.228-0.238-1.974l-0.072-0.594l-0.147,0.018c-3.617-20.571-13.553-40.093-28.942-56.762 c-15.317-16.589-35.217-29.687-57.548-37.878c-19.133-7.018-39.434-10.577-60.337-10.577c-28.22,0-55.627,6.637-79.257,19.193 C23.289,47.297-3.585,91.799,0.387,136.461c2.056,23.111,11.11,45.11,26.184,63.621c14.188,17.423,33.381,31.483,55.503,40.66 c13.602,5.642,27.051,8.301,41.291,11.116l1.667,0.33c3.921,0.776,4.975,1.842,5.247,2.264c0.503,0.784,0.24,2.329,0.038,3.18 c-0.186,0.785-0.378,1.568-0.57,2.352c-1.529,6.235-3.11,12.683-1.868,19.792c1.428,8.172,6.531,12.859,14.001,12.86 c0.001,0,0.001,0,0.002,0c8.035,0,17.18-5.39,23.231-8.956l0.808-0.475c14.436-8.478,28.036-18.041,38.271-25.425 c22.397-16.159,47.783-34.475,66.815-58.17C290.172,175.745,299.2,145.078,295.838,115.347z M92.343,160.561H66.761 c-3.866,0-7-3.134-7-7V99.865c0-3.866,3.134-7,7-7c3.866,0,7,3.134,7,7v46.696h18.581c3.866,0,7,3.134,7,7 C99.343,157.427,96.209,160.561,92.343,160.561z M119.03,153.371c0,3.866-3.134,7-7,7c-3.866,0-7-3.134-7-7V99.675 c0-3.866,3.134-7,7-7c3.866,0,7,3.134,7,7V153.371z M182.304,153.371c0,3.033-1.953,5.721-4.838,6.658 c-0.712,0.231-1.441,0.343-2.161,0.343c-2.199,0-4.323-1.039-5.666-2.888l-25.207-34.717v30.605c0,3.866-3.134,7-7,7 c-3.866,0-7-3.134-7-7v-52.16c0-3.033,1.953-5.721,4.838-6.658c2.886-0.936,6.045,0.09,7.827,2.545l25.207,34.717V99.675 c0-3.866,3.134-7,7-7c3.866,0,7,3.134,7,7V153.371z M233.311,159.269h-34.645c-3.866,0-7-3.134-7-7v-26.847V98.573 c0-3.866,3.134-7,7-7h33.57c3.866,0,7,3.134,7,7s-3.134,7-7,7h-26.57v12.849h21.562c3.866,0,7,3.134,7,7c0,3.866-3.134,7-7,7 h-21.562v12.847h27.645c3.866,0,7,3.134,7,7S237.177,159.269,233.311,159.269z" fill="#000000"/></symbol><symbol id="facebook-black-social-button-circle" viewBox="0 0 612 612"><title>facebook-black-social-button-circle</title><path d="M612,306C612,137.004,474.995,0,306,0C137.004,0,0,137.004,0,306c0,168.995,137.004,306,306,306 C474.995,612,612,474.995,612,306z M223.825,306v-58.557h35.885V212.03c0-47.764,14.271-82.175,66.569-82.175h62.201v58.418 h-43.785c-21.949,0-26.929,14.577-26.929,29.849v29.32h67.487L376.046,306h-58.278v176.617H259.71V306H223.825z" fill="#000000"/></symbol></svg>